<svg width="500" height="200" viewBox="0 0 500 200" fill="none" xmlns="http://www.w3.org/2000/svg">
<rect width="500" height="200" fill=""/>
<path d="M88.2835 107.518H56.5482V113.499H81.755C80.5766 124.111 72.0567 132.631 57.2729 132.631C41.2225 132.631 30.3457 120.752 30.3457 105.974C30.3457 91.197 41.2225 79.3183 57.2729 79.3183C66.7948 79.3183 75.2264 84.3911 79.1272 92.0099L84.7483 88.7456C79.4864 79.4065 69.1516 73.1489 57.2729 73.1489C37.7817 73.1489 23.9999 87.8382 23.9999 105.974C23.9999 124.111 37.7817 138.8 57.2729 138.8C76.7703 138.8 88.2835 125.919 88.2835 110.783V107.518Z" fill="#1677FF"/>
<path d="M119.372 138.8C132.612 138.8 143.217 128.459 143.217 115.043C143.217 101.62 132.612 91.2852 119.372 91.2852C106.132 91.2852 95.5261 101.62 95.5261 115.043C95.5261 128.459 106.132 138.8 119.372 138.8ZM119.372 132.996C109.308 132.996 101.506 125.106 101.506 115.043C101.506 104.979 109.308 97.089 119.372 97.089C129.436 97.089 137.231 104.979 137.231 115.043C137.231 125.106 129.436 132.996 119.372 132.996Z" fill="#1677FF"/>
<path d="M197.411 136.471L166.035 103.828L196.503 73H188.16L159.323 102.013V73H152.978V136.471H159.323V105.731L189.067 136.471H197.411Z" fill="#15151A"/>
<path d="M243.638 91.1363V100.022C239.832 93.9469 233.392 90.0461 225.326 90.0461C212.539 90.0461 201.934 100.381 201.934 113.804C201.934 127.22 212.539 137.561 225.326 137.561C233.392 137.561 239.832 133.66 243.638 127.585V136.471H249.625V91.1363H243.638ZM225.779 131.757C215.716 131.757 207.914 123.867 207.914 113.804C207.914 103.74 215.716 95.85 225.779 95.85C235.843 95.85 243.638 103.74 243.638 113.804C243.638 123.867 235.843 131.757 225.779 131.757Z" fill="#15151A"/>
<path d="M286.605 90.0461C278.539 90.0461 272.099 93.9469 268.292 100.022V91.1363H262.306V154.607H268.292V127.585C272.099 133.66 278.539 137.561 286.605 137.561C299.391 137.561 310.003 127.22 310.003 113.804C310.003 100.381 299.391 90.0461 286.605 90.0461ZM286.151 131.757C276.088 131.757 268.292 123.867 268.292 113.804C268.292 103.74 276.088 95.85 286.151 95.85C296.222 95.85 304.017 103.74 304.017 113.804C304.017 123.867 296.222 131.757 286.151 131.757Z" fill="#15151A"/>
<path d="M343.99 96.94V91.1361H330.933V78.4382L324.953 80.2531V91.1361H315.431V96.94H324.953V124.409C324.953 135.292 331.752 138.285 343.99 136.471V131.209C335.199 131.574 330.933 132.211 330.933 124.409V96.94H343.99Z" fill="#15151A"/>
<path d="M385.875 91.1365V114.888C385.875 127.044 379.164 131.757 371.186 131.757C363.296 131.757 358.854 127.044 358.854 118.971V91.1365H352.873V118.971C352.873 130.308 359.578 137.561 370.644 137.561C377.078 137.561 382.34 135.11 385.875 129.4V136.471H391.862V91.1365H385.875Z" fill="#15151A"/>
<path d="M410.529 98.6605V91.1363H404.542V136.471H410.529V111.264C410.529 100.022 417.6 96.2092 424.853 96.2092V90.4116C419.049 90.4116 413.699 92.3147 410.529 98.6605Z" fill="#15151A"/>
<path d="M453.955 90.0461C439.902 90.0461 430.292 100.475 430.292 113.804C430.292 127.497 440.085 137.561 454.408 137.561C463.565 137.561 470.547 133.295 474.353 127.132L469.098 124.05C466.646 128.398 461.662 131.757 454.497 131.757C444.886 131.757 437.721 126.041 436.455 116.797H476.263C476.351 115.889 476.439 114.887 476.439 113.986C476.439 101.559 467.825 90.0461 453.955 90.0461ZM453.955 95.85C461.75 95.85 469.009 101.017 470.276 110.993H436.455C437.633 102.108 444.433 95.85 453.955 95.85Z" fill="#15151A"/>
<path d="M426.117 154.956C426.174 157.212 426.205 159.405 426.237 161.541H417.925V154.509C417.124 154.483 416.179 154.628 415.373 154.925C415.492 160.596 415.524 165.789 415.555 170.622C416.564 170.742 417.54 170.622 417.925 170.509V163.652H426.268C426.293 166.085 426.293 168.398 426.293 170.654C427.302 170.773 428.285 170.654 428.669 170.534V154.54C427.869 154.509 426.917 154.66 426.117 154.956Z" fill="#1677FF"/>
<path d="M445.439 170.981C449.591 170.981 451.873 168.933 451.904 165.014L451.992 154.509C451.192 154.483 450.241 154.628 449.44 154.925C449.528 158.788 449.623 162.493 449.591 165.253C449.528 167.686 448.255 168.877 445.735 168.877C442.943 168.877 441.55 167.717 441.55 165.285V154.509C440.75 154.483 439.799 154.628 438.998 154.925C439.087 159.972 439.143 163.148 439.143 165.518C439.175 169.173 441.343 170.981 445.439 170.981Z" fill="#1677FF"/>
<path d="M471.965 161.869C472.917 160.98 473.333 159.972 473.333 158.667C473.333 156.027 471.518 154.395 467.334 154.395C465.588 154.395 463.805 154.54 462.229 154.899C462.349 160.596 462.38 165.757 462.412 170.565H468.109C472.054 170.565 474.366 168.782 474.366 165.612C474.366 163.828 473.566 162.492 471.965 161.869ZM464.781 156.556C464.781 156.556 465.821 156.443 467.308 156.443C469.798 156.443 471.014 157.331 471.014 159.083C471.014 160.06 470.718 160.652 470.125 161.276H464.781V156.556ZM471.197 167.956C470.39 168.309 469.445 168.485 468.165 168.485H464.781V163.173H469.029C470.926 163.173 471.877 164.093 471.877 165.669C471.877 166.589 471.701 167.269 471.197 167.956Z" fill="#1677FF"/>
</svg>
